<svg xmlns="http://www.w3.org/2000/svg" viewBox="0 0 32 32"><defs><linearGradient id="a" x1="100%" x2="0%" y1="55.23%" y2="55.23%"><stop offset="0%" stop-color="#570345"/><stop offset="37.68%" stop-color="#E72E73"/><stop offset="59.89%" stop-color="#E72E73"/><stop offset="100%" stop-color="#360030"/></linearGradient><linearGradient id="b" x1="62.39%" x2="93.84%" y1="47.11%" y2="59.3%"><stop offset="0%" stop-color="#E72E73"/><stop offset="100%" stop-color="#9D095E"/></linearGradient></defs><g fill="none" fill-rule="evenodd"><path fill="url(#a)" d="M22.64 0h-.09c-2.55.02-5.52 1.44-7.48 6.22-1.84 4.52-2.29 4.65-2.7 4.65h-.08c-.43 0-1.4-1.06-2.43-2.71C8.83 6.5 7.1 4.85 5.1 4.85c-3.53 0-1.56 13.98-1.56 9.64s.81-4.92 1.47-4.92c.65 0 2 1.05 3.71 3.68 1.72 2.62 2.88 4.27 4.69 4.27 1.8 0 3.4-2.24 4.74-6.02 1.35-3.78 3-5.06 3.97-5.06.97 0 3.6 1.25 3.6 6.12l.01 2.23c.1 3.18 8.75-13.57-3.1-14.79" transform="translate(0 1)"/><path fill="#E72E73" d="M5.11 5.85C1.58 5.85 0 10.62 0 14.34c0 5.4 3.9 9.43 4.77 10.3.87.88 1.22.63 1.47.5.25-.12.43-.59-.29-1.46-.71-.88-2.4-3.84-2.4-8.19 0-1.91.16-3.1.4-3.82a7.16 7.16 0 011.44-2.86c.92-1.1 2.54-1.1 3.45-1-1-1.1-2.3-1.96-3.73-1.96"/><path fill="url(#b)" d="M14.57 27.4c1.88 0 5.6-.59 7.31-2.9 1.72-2.32 2.34-4 3.87-4 1.53 0 2.31 1.03 2.31 2.24 0 1.22-3.52 6.6-12.14 6.6-4.13 0-6.19-1.29-7.22-2-1.03-.72-1.3-1.38-1.03-1.66.28-.28.81-.06 1.84.56 1.04.62 2.88 1.16 5.06 1.16" transform="translate(0 1)"/><path fill="#E72E73" d="M22.6 1l-.37.01c1.07.08 6.36.74 6.36 5.96 0 5.2-3.03 5.42-3.03 9.68 0 2.54.75 3.5 2.44 3.5 2.12 0 3.84-3.6 3.84-7.93C31.84 3.19 25.16 1 22.6 1"/></g></svg>